<svg width="63" height="198" viewBox="0 0 63 198" fill="none" xmlns="http://www.w3.org/2000/svg">
<path d="M7.01544 0.980194L8.49518 4.23286H13.2837L9.40972 6.24311L10.8895 9.49578L7.01544 7.48552L3.14142 9.49578L4.62116 6.24311L0.747141 4.23286H5.5357L7.01544 0.980194Z" fill="#7551FF"/>
<path d="M19.465 0.980194L20.9447 4.23286H25.7333L21.8592 6.24311L23.339 9.49578L19.465 7.48552L15.5909 9.49578L17.0707 6.24311L13.1967 4.23286H17.9852L19.465 0.980194Z" fill="#7551FF"/>
<path d="M31.5917 0.980194L33.0714 4.23286H37.86L33.986 6.24311L35.4657 9.49578L31.5917 7.48552L27.7177 9.49578L29.1974 6.24311L25.3234 4.23286H30.112L31.5917 0.980194Z" fill="#7551FF"/>
<path d="M44.1664 1.0947L45.6461 4.34736H50.4347L46.5606 6.35762L48.0404 9.61028L44.1664 7.60002L40.2923 9.61028L41.7721 6.35762L37.8981 4.34736H42.6866L44.1664 1.0947Z" fill="#D9D9D9"/>
<path d="M56.6595 1.0947L58.1392 4.34736H62.9278L59.0538 6.35762L60.5335 9.61028L56.6595 7.60002L52.7855 9.61028L54.2652 6.35762L50.3912 4.34736H55.1798L56.6595 1.0947Z" fill="#D9D9D9"/>
<path d="M7.01544 187.98L8.49518 191.233H13.2837L9.40972 193.243L10.8895 196.496L7.01544 194.486L3.14142 196.496L4.62116 193.243L0.747141 191.233H5.5357L7.01544 187.98Z" fill="#7551FF"/>
<path d="M19.465 187.98L20.9447 191.233H25.7333L21.8592 193.243L23.339 196.496L19.465 194.486L15.5909 196.496L17.0707 193.243L13.1967 191.233H17.9852L19.465 187.98Z" fill="#7551FF"/>
<path d="M31.5917 187.98L33.0714 191.233H37.86L33.986 193.243L35.4657 196.496L31.5917 194.486L27.7177 196.496L29.1974 193.243L25.3234 191.233H30.112L31.5917 187.98Z" fill="#7551FF"/>
<path d="M44.1664 188.095L45.6461 191.347H50.4347L46.5606 193.358L48.0404 196.61L44.1664 194.6L40.2923 196.61L41.7721 193.358L37.8981 191.347H42.6866L44.1664 188.095Z" fill="#D9D9D9"/>
<path d="M56.6595 188.095L58.1392 191.347H62.9278L59.0538 193.358L60.5335 196.61L56.6595 194.6L52.7855 196.61L54.2652 193.358L50.3912 191.347H55.1798L56.6595 188.095Z" fill="#D9D9D9"/>
</svg>
