<svg width="24" height="24" viewBox="0 0 24 24" fill="none" xmlns="http://www.w3.org/2000/svg">
<path d="M11 7.5C11 7.36739 11.0527 7.24021 11.1464 7.14645C11.2402 7.05268 11.3674 7 11.5 7H12.5C12.6326 7 12.7598 7.05268 12.8536 7.14645C12.9473 7.24021 13 7.36739 13 7.5V11H14.5C14.6326 11 14.7598 11.0527 14.8536 11.1464C14.9473 11.2402 15 11.3674 15 11.5V12.5C15 12.6326 14.9473 12.7598 14.8536 12.8536C14.7598 12.9473 14.6326 13 14.5 13H11.5C11.3674 13 11.2402 12.9473 11.1464 12.8536C11.0527 12.7598 11 12.6326 11 12.5V7.5Z" fill="#2D333F"/>
<path d="M21 12C21 13.1819 20.7672 14.3522 20.3149 15.4442C19.8626 16.5361 19.1997 17.5282 18.364 18.364C17.5282 19.1997 16.5361 19.8626 15.4442 20.3149C14.3522 20.7672 13.1819 21 12 21C10.8181 21 9.64778 20.7672 8.55585 20.3149C7.46392 19.8626 6.47177 19.1997 5.63604 18.364C4.80031 17.5282 4.13738 16.5361 3.68508 15.4442C3.23279 14.3522 3 13.1819 3 12C3 9.61305 3.94821 7.32387 5.63604 5.63604C7.32387 3.94821 9.61305 3 12 3C14.3869 3 16.6761 3.94821 18.364 5.63604C20.0518 7.32387 21 9.61305 21 12ZM19 12C19 11.0807 18.8189 10.1705 18.4672 9.32122C18.1154 8.47194 17.5998 7.70026 16.9497 7.05025C16.2997 6.40024 15.5281 5.88463 14.6788 5.53284C13.8295 5.18106 12.9193 5 12 5C11.0807 5 10.1705 5.18106 9.32122 5.53284C8.47194 5.88463 7.70026 6.40024 7.05025 7.05025C6.40024 7.70026 5.88463 8.47194 5.53284 9.32122C5.18106 10.1705 5 11.0807 5 12C5 13.8565 5.7375 15.637 7.05025 16.9497C8.36301 18.2625 10.1435 19 12 19C13.8565 19 15.637 18.2625 16.9497 16.9497C18.2625 15.637 19 13.8565 19 12Z" fill="#2D333F"/>
</svg>
