<svg width="24" height="24" viewBox="0 0 24 24" fill="none" xmlns="http://www.w3.org/2000/svg">
<path d="M19 4C19.5304 4 20.0391 4.21071 20.4142 4.58579C20.7893 4.96086 21 5.46957 21 6V15C21 15.5304 20.7893 16.0391 20.4142 16.4142C20.0391 16.7893 19.5304 17 19 17H17V19.86C17.0003 20.0502 16.9464 20.2365 16.8445 20.3971C16.7427 20.5577 16.5972 20.686 16.425 20.7668C16.2528 20.8476 16.0612 20.8777 15.8726 20.8535C15.6839 20.8292 15.5061 20.7517 15.36 20.63L11 17H5C4.46957 17 3.96086 16.7893 3.58579 16.4142C3.21071 16.0391 3 15.5304 3 15V6C3 5.46957 3.21071 4.96086 3.58579 4.58579C3.96086 4.21071 4.46957 4 5 4H19ZM7.75 9.5C7.41848 9.5 7.10054 9.6317 6.86612 9.86612C6.6317 10.1005 6.5 10.4185 6.5 10.75C6.5 11.0815 6.6317 11.3995 6.86612 11.6339C7.10054 11.8683 7.41848 12 7.75 12C8.08152 12 8.39946 11.8683 8.63388 11.6339C8.8683 11.3995 9 11.0815 9 10.75C9 10.4185 8.8683 10.1005 8.63388 9.86612C8.39946 9.6317 8.08152 9.5 7.75 9.5ZM11 10.75C11 11.0815 11.1317 11.3995 11.3661 11.6339C11.6005 11.8683 11.9185 12 12.25 12C12.5815 12 12.8995 11.8683 13.1339 11.6339C13.3683 11.3995 13.5 11.0815 13.5 10.75C13.5 10.4185 13.3683 10.1005 13.1339 9.86612C12.8995 9.6317 12.5815 9.5 12.25 9.5C11.9185 9.5 11.6005 9.6317 11.3661 9.86612C11.1317 10.1005 11 10.4185 11 10.75ZM16.25 9.5C15.9185 9.5 15.6005 9.6317 15.3661 9.86612C15.1317 10.1005 15 10.4185 15 10.75C15 11.0815 15.1317 11.3995 15.3661 11.6339C15.6005 11.8683 15.9185 12 16.25 12C16.5815 12 16.8995 11.8683 17.1339 11.6339C17.3683 11.3995 17.5 11.0815 17.5 10.75C17.5 10.4185 17.3683 10.1005 17.1339 9.86612C16.8995 9.6317 16.5815 9.5 16.25 9.5Z" fill="#F4F7FE"/>
</svg>
