<svg width="63" height="198" viewBox="0 0 63 198" fill="none" xmlns="http://www.w3.org/2000/svg">
<path d="M6.59088 0L8.07062 3.25266H12.8592L8.98516 5.26292L10.4649 8.51558L6.59088 6.50533L2.71686 8.51558L4.1966 5.26292L0.322581 3.25266H5.11113L6.59088 0Z" fill="#7551FF"/>
<path d="M19.0404 0L20.5201 3.25266H25.3087L21.4347 5.26292L22.9144 8.51558L19.0404 6.50533L15.1664 8.51558L16.6461 5.26292L12.7721 3.25266H17.5607L19.0404 0Z" fill="#7551FF"/>
<path d="M31.1671 0L32.6469 3.25266H37.4354L33.5614 5.26292L35.0412 8.51558L31.1671 6.50533L27.2931 8.51558L28.7729 5.26292L24.8988 3.25266H29.6874L31.1671 0Z" fill="#7551FF"/>
<path d="M43.7418 0.114502L45.2216 3.36716H50.0101L46.1361 5.37742L47.6158 8.63008L43.7418 6.61983L39.8678 8.63008L41.3475 5.37742L37.4735 3.36716H42.2621L43.7418 0.114502Z" fill="#D9D9D9"/>
<path d="M56.2349 0.114502L57.7147 3.36716H62.5032L58.6292 5.37742L60.109 8.63008L56.2349 6.61983L52.3609 8.63008L53.8407 5.37742L49.9666 3.36716H54.7552L56.2349 0.114502Z" fill="#D9D9D9"/>
<path d="M6.59088 188L8.07062 191.253H12.8592L8.98516 193.263L10.4649 196.516L6.59088 194.505L2.71686 196.516L4.1966 193.263L0.322581 191.253H5.11113L6.59088 188Z" fill="#7551FF"/>
<path d="M19.0404 188L20.5201 191.253H25.3087L21.4347 193.263L22.9144 196.516L19.0404 194.505L15.1664 196.516L16.6461 193.263L12.7721 191.253H17.5607L19.0404 188Z" fill="#7551FF"/>
<path d="M31.1671 188L32.6469 191.253H37.4354L33.5614 193.263L35.0412 196.516L31.1671 194.505L27.2931 196.516L28.7729 193.263L24.8988 191.253H29.6874L31.1671 188Z" fill="#7551FF"/>
<path d="M43.7418 188.115L45.2216 191.367H50.0101L46.1361 193.377L47.6158 196.63L43.7418 194.62L39.8678 196.63L41.3475 193.377L37.4735 191.367H42.2621L43.7418 188.115Z" fill="#D9D9D9"/>
<path d="M56.2349 188.115L57.7147 191.367H62.5032L58.6292 193.377L60.109 196.63L56.2349 194.62L52.3609 196.63L53.8407 193.377L49.9666 191.367H54.7552L56.2349 188.115Z" fill="#D9D9D9"/>
</svg>
