<svg width="56" height="56" viewBox="0 0 56 56" fill="none" xmlns="http://www.w3.org/2000/svg">
<circle cx="28" cy="28" r="28" fill="#F4F7FE"/>
<g clip-path="url(#clip0_2221_1267)">
<path d="M31.2502 16.0833H19.3335C18.1419 16.0833 17.1669 17.0583 17.1669 18.25V32.3333C17.1669 32.9291 17.6544 33.4166 18.2502 33.4166C18.846 33.4166 19.3335 32.9291 19.3335 32.3333V19.3333C19.3335 18.7375 19.821 18.25 20.4169 18.25H31.2502C31.846 18.25 32.3335 17.7625 32.3335 17.1666C32.3335 16.5708 31.846 16.0833 31.2502 16.0833ZM31.8894 21.0558L37.1219 26.2883C37.5227 26.6891 37.7502 27.2416 37.7502 27.8158V37.75C37.7502 38.9416 36.7752 39.9166 35.5835 39.9166H23.656C22.4644 39.9166 21.5002 38.9416 21.5002 37.75L21.511 22.5833C21.511 21.3916 22.4752 20.4166 23.6669 20.4166H30.351C30.9252 20.4166 31.4777 20.6441 31.8894 21.0558ZM31.2502 28H36.1252L30.1669 22.0416V26.9166C30.1669 27.5125 30.6544 28 31.2502 28Z" fill="#4318FF"/>
</g>
<defs>
<clipPath id="clip0_2221_1267">
<rect width="26" height="26" fill="white" transform="translate(15 15)"/>
</clipPath>
</defs>
</svg>
