<svg width="24" height="24" viewBox="0 0 24 24" fill="none" xmlns="http://www.w3.org/2000/svg">
<path d="M4.93 14.828C3.98132 13.8791 3.32533 12.6776 3.04015 11.3665C2.75497 10.0554 2.85261 8.68997 3.32145 7.43279C3.79029 6.1756 4.61057 5.07965 5.68461 4.27543C6.75865 3.47122 8.04119 2.99263 9.37951 2.89665C10.7178 2.80068 12.0555 3.09136 13.2334 3.73409C14.4112 4.37682 15.3794 5.34451 16.0229 6.52193C16.6663 7.69935 16.9578 9.03689 16.8626 10.3753C16.7674 11.7137 16.2896 12.9965 15.486 14.071L19.425 18.011C19.5187 18.1048 19.5714 18.2319 19.5714 18.3645C19.5714 18.4971 19.5187 18.6242 19.425 18.718L18.718 19.425C18.6242 19.5187 18.4971 19.5714 18.3645 19.5714C18.2319 19.5714 18.1048 19.5187 18.011 19.425L14.071 15.485C12.7227 16.4926 11.0565 16.9808 9.37757 16.8601C7.69865 16.7395 6.12039 16.0181 4.93 14.828ZM6.343 6.343C5.87537 6.80655 5.5039 7.3579 5.24993 7.9654C4.99595 8.5729 4.86447 9.22458 4.86303 9.88303C4.86159 10.5415 4.99021 11.1937 5.24153 11.8023C5.49284 12.4109 5.86189 12.9639 6.32748 13.4295C6.79308 13.8951 7.34605 14.2642 7.95466 14.5155C8.56326 14.7668 9.21551 14.8954 9.87397 14.894C10.5324 14.8925 11.1841 14.761 11.7916 14.5071C12.3991 14.2531 12.9504 13.8816 13.414 13.414C14.3248 12.471 14.8288 11.208 14.8174 9.89699C14.806 8.58601 14.2801 7.33195 13.3531 6.40491C12.4261 5.47787 11.172 4.95202 9.86101 4.94063C8.55002 4.92924 7.28701 5.43321 6.344 6.344L6.343 6.343Z" fill="#2D333F"/>
</svg>
