<svg width="65" height="10" viewBox="0 0 65 10" fill="none" xmlns="http://www.w3.org/2000/svg">
<path d="M6.97191 0.359428L8.49709 3.61374H13.4327L9.4397 5.62501L10.9649 8.87932L6.97191 6.86804L2.97895 8.87932L4.50413 5.62501L0.511165 3.61374H5.44674L6.97191 0.359428Z" fill="#7551FF"/>
<path d="M19.8037 0.359428L21.3288 3.61374H26.2644L22.2715 5.62501L23.7966 8.87932L19.8037 6.86804L15.8107 8.87932L17.3359 5.62501L13.3429 3.61374H18.2785L19.8037 0.359428Z" fill="#7551FF"/>
<path d="M32.3027 0.359428L33.8279 3.61374H38.7635L34.7705 5.62501L36.2957 8.87932L32.3027 6.86804L28.3098 8.87932L29.8349 5.62501L25.842 3.61374H30.7775L32.3027 0.359428Z" fill="#7551FF"/>
<path d="M45.2635 0.473988L46.7886 3.72829H51.7242L47.7313 5.73957L49.2564 8.99387L45.2635 6.9826L41.2705 8.99387L42.7957 5.73957L38.8027 3.72829H43.7383L45.2635 0.473988Z" fill="#D9D9D9"/>
<path d="M58.1402 0.473988L59.6653 3.72829H64.6009L60.608 5.73957L62.1331 8.99387L58.1402 6.9826L54.1472 8.99387L55.6724 5.73957L51.6794 3.72829H56.615L58.1402 0.473988Z" fill="#D9D9D9"/>
</svg>
