<svg width="24" height="24" viewBox="0 0 24 24" fill="none" xmlns="http://www.w3.org/2000/svg">
<path d="M20.939 4.57L15.062 22.184C14.986 22.4118 14.843 22.6114 14.6518 22.7567C14.4605 22.902 14.2299 22.9863 13.9901 22.9985C13.7502 23.0107 13.5122 22.9503 13.3072 22.8251C13.1022 22.7 12.9398 22.5159 12.841 22.297L9.531 14.961C9.41028 14.6941 9.19567 14.4809 8.928 14.362L1.708 11.148C1.4881 11.0504 1.30289 10.8885 1.17674 10.6836C1.05058 10.4787 0.989371 10.2404 1.00116 10.0001C1.01296 9.75982 1.0972 9.5287 1.24281 9.33716C1.38843 9.14563 1.5886 9.00264 1.817 8.927L19.429 3.062C19.6391 2.99221 19.8645 2.98221 20.0799 3.03312C20.2954 3.08403 20.4925 3.19384 20.6491 3.35028C20.8058 3.50673 20.9158 3.70364 20.967 3.91903C21.0182 4.13442 21.0085 4.3598 20.939 4.57Z" fill="#F4F7FE"/>
</svg>
