<svg width="16" height="16" viewBox="0 0 16 16" fill="none" xmlns="http://www.w3.org/2000/svg">
<g clip-path="url(#clip0_2237_435)">
<g clip-path="url(#clip1_2237_435)">
<path d="M3.21304 15.984C3.15004 15.984 3.10904 15.974 3.08804 15.953C2.98404 15.89 2.95204 15.817 2.99404 15.734L3.87004 10.218L0.0830372 6.331C3.71858e-05 6.247 -0.0209628 6.164 0.0210372 6.08C0.0420372 6.017 0.104037 5.965 0.209037 5.923L5.46504 5.14L7.78104 0.125C7.86404 0.042 7.93704 0 8.00004 0C8.10404 0 8.17704 0.042 8.21904 0.125L10.566 5.14L15.792 5.924C15.8332 5.93435 15.8714 5.95384 15.904 5.98102C15.9365 6.00821 15.9625 6.04238 15.98 6.081C16.021 6.164 16 6.247 15.917 6.331L12.131 10.217L13.038 15.733C13.0383 15.774 13.0301 15.8146 13.014 15.8523C12.9978 15.89 12.974 15.924 12.944 15.952C12.84 16.015 12.756 16.015 12.694 15.952L8.00004 13.383L3.33804 15.953C3.31704 15.974 3.27504 15.984 3.21304 15.984Z" fill="#7551FF"/>
</g>
</g>
<defs>
<clipPath id="clip0_2237_435">
<rect width="16" height="16" fill="white"/>
</clipPath>
<clipPath id="clip1_2237_435">
<rect width="16" height="16" fill="white"/>
</clipPath>
</defs>
</svg>
