<svg width="25" height="33" viewBox="0 0 25 33" fill="none" xmlns="http://www.w3.org/2000/svg">
<g clip-path="url(#clip0_2221_1407)">
<rect width="23.65" height="32.3304" transform="translate(0.716644 0.553623)" fill="#F4F7FE"/>
<g clip-path="url(#clip1_2221_1407)">
<path d="M11.9614 13.8346H12.1614C12.9314 13.8346 13.5614 14.4646 13.5614 15.2346V22.2346C13.5614 23.0046 12.9314 23.6346 12.1614 23.6346H11.9614C11.1914 23.6346 10.5614 23.0046 10.5614 22.2346V15.2346C10.5614 14.4646 11.1914 13.8346 11.9614 13.8346V13.8346ZM17.5614 9.63456C18.3314 9.63456 18.9614 10.2646 18.9614 11.0346V22.2346C18.9614 23.0046 18.3314 23.6346 17.5614 23.6346C16.7914 23.6346 16.1614 23.0046 16.1614 22.2346V11.0346C16.1614 10.2646 16.7914 9.63456 17.5614 9.63456ZM23.1614 17.6346C23.9314 17.6346 24.5614 18.2646 24.5614 19.0346V22.2346C24.5614 23.0046 23.9314 23.6346 23.1614 23.6346C22.3914 23.6346 21.7614 23.0046 21.7614 22.2346V19.0346C21.7614 18.2646 22.3914 17.6346 23.1614 17.6346V17.6346Z" fill="#4318FF"/>
</g>
</g>
<defs>
<clipPath id="clip0_2221_1407">
<rect width="23.65" height="32.3304" fill="white" transform="translate(0.716644 0.553623)"/>
</clipPath>
<clipPath id="clip1_2221_1407">
<rect width="24" height="24" fill="white" transform="translate(5.56137 4.63456)"/>
</clipPath>
</defs>
</svg>
