<svg width="64" height="10" viewBox="0 0 64 10" fill="none" xmlns="http://www.w3.org/2000/svg">
<path d="M7.18445 0.534546L8.66419 3.78721H13.4527L9.57872 5.79747L11.0585 9.05013L7.18445 7.03987L3.31042 9.05013L4.79017 5.79747L0.916148 3.78721H5.7047L7.18445 0.534546Z" fill="#7551FF"/>
<path d="M19.634 0.534546L21.1137 3.78721H25.9023L22.0282 5.79747L23.508 9.05013L19.634 7.03987L15.7599 9.05013L17.2397 5.79747L13.3657 3.78721H18.1542L19.634 0.534546Z" fill="#7551FF"/>
<path d="M31.7607 0.534546L33.2405 3.78721H38.029L34.155 5.79747L35.6347 9.05013L31.7607 7.03987L27.8867 9.05013L29.3664 5.79747L25.4924 3.78721H30.281L31.7607 0.534546Z" fill="#7551FF"/>
<path d="M44.3354 0.649048L45.8151 3.90171H50.6037L46.7297 5.91197L48.2094 9.16463L44.3354 7.15437L40.4614 9.16463L41.9411 5.91197L38.0671 3.90171H42.8556L44.3354 0.649048Z" fill="#D9D9D9"/>
<path d="M56.8285 0.649048L58.3083 3.90171H63.0968L59.2228 5.91197L60.7025 9.16463L56.8285 7.15437L52.9545 9.16463L54.4342 5.91197L50.5602 3.90171H55.3488L56.8285 0.649048Z" fill="#D9D9D9"/>
</svg>
