<svg width="63" height="11" viewBox="0 0 63 11" fill="none" xmlns="http://www.w3.org/2000/svg">
<path d="M7.01544 0.98019L8.49518 4.23285H13.2837L9.40972 6.24311L10.8895 9.49577L7.01544 7.48552L3.14142 9.49577L4.62116 6.24311L0.747141 4.23285H5.5357L7.01544 0.98019Z" fill="#7551FF"/>
<path d="M19.465 0.98019L20.9447 4.23285H25.7333L21.8592 6.24311L23.339 9.49577L19.465 7.48552L15.5909 9.49577L17.0707 6.24311L13.1967 4.23285H17.9852L19.465 0.98019Z" fill="#7551FF"/>
<path d="M31.5917 0.98019L33.0714 4.23285H37.86L33.986 6.24311L35.4657 9.49577L31.5917 7.48552L27.7177 9.49577L29.1974 6.24311L25.3234 4.23285H30.112L31.5917 0.98019Z" fill="#7551FF"/>
<path d="M44.1664 1.09469L45.6461 4.34736H50.4347L46.5606 6.35761L48.0404 9.61027L44.1664 7.60002L40.2923 9.61027L41.7721 6.35761L37.8981 4.34736H42.6866L44.1664 1.09469Z" fill="#D9D9D9"/>
<path d="M56.6595 1.09469L58.1392 4.34736H62.9278L59.0538 6.35761L60.5335 9.61027L56.6595 7.60002L52.7855 9.61027L54.2652 6.35761L50.3912 4.34736H55.1798L56.6595 1.09469Z" fill="#D9D9D9"/>
</svg>
