<svg width="24" height="24" viewBox="0 0 24 24" fill="none" xmlns="http://www.w3.org/2000/svg">
<path d="M7.002 8C7.00204 7.12587 7.23125 6.26702 7.66677 5.50911C8.10229 4.7512 8.72889 4.1207 9.48409 3.68051C10.2393 3.24031 11.0967 3.0058 11.9708 3.00035C12.8449 2.9949 13.7052 3.2187 14.4658 3.64945C15.2265 4.08019 15.8609 4.70282 16.3058 5.45525C16.7508 6.20767 16.9907 7.06359 17.0016 7.93765C17.0126 8.81172 16.7942 9.67338 16.3682 10.4367C15.9422 11.2 15.3236 11.8383 14.574 12.288C17.004 12.882 18.736 14.396 19.766 16.831C19.959 17.2871 20.036 17.7838 19.9903 18.2769C19.9446 18.77 19.7776 19.2441 19.5041 19.6569C19.2306 20.0697 18.8591 20.4084 18.4229 20.6428C17.9867 20.8771 17.4992 20.9999 17.004 21H7C6.50471 21 6.01713 20.8774 5.58076 20.6431C5.14439 20.4088 4.77282 20.0702 4.4992 19.6573C4.22559 19.2445 4.05845 18.7703 4.0127 18.2771C3.96694 17.784 4.044 17.2871 4.237 16.831C5.267 14.396 6.996 12.882 9.427 12.288C8.68667 11.8438 8.07413 11.2153 7.64912 10.4637C7.22411 9.71222 7.00116 8.86337 7.002 8ZM9.002 8C9.002 8.39383 9.07957 8.78381 9.23029 9.14767C9.381 9.51152 9.6019 9.84213 9.88039 10.1206C10.1589 10.3991 10.4895 10.62 10.8533 10.7707C11.2172 10.9214 11.6072 10.999 12.001 10.999C12.3948 10.999 12.7848 10.9214 13.1487 10.7707C13.5125 10.62 13.8431 10.3991 14.1216 10.1206C14.4001 9.84213 14.621 9.51152 14.7717 9.14767C14.9224 8.78381 15 8.39383 15 8C15 7.20435 14.6839 6.44129 14.1213 5.87868C13.5587 5.31607 12.7956 5 12 5C11.2044 5 10.4413 5.31607 9.87868 5.87868C9.31607 6.44129 9 7.20435 9 8H9.002ZM6.692 18.949C6.79389 18.983 6.9006 19.0002 7.008 19H16.995C17.1533 19.0001 17.3094 18.9626 17.4503 18.8906C17.5913 18.8186 17.7132 18.7142 17.806 18.5859C17.8987 18.4576 17.9597 18.3091 17.9839 18.1527C18.008 17.9962 17.9947 17.8363 17.945 17.686C17.13 15.229 15.15 14 12.002 14C8.852 14 6.872 15.229 6.059 17.686C6.01766 17.8106 6.00127 17.942 6.01076 18.0729C6.02025 18.2038 6.05544 18.3316 6.11432 18.4489C6.1732 18.5661 6.25461 18.6707 6.3539 18.7565C6.45319 18.8423 6.56742 18.9077 6.692 18.949Z" fill="#2D333F"/>
</svg>
