<svg width="24" height="24" viewBox="0 0 24 24" fill="none" xmlns="http://www.w3.org/2000/svg">
<path d="M12 21C10.8181 21 9.64778 20.7672 8.55585 20.3149C7.46392 19.8626 6.47177 19.1997 5.63604 18.364C4.80031 17.5282 4.13738 16.5361 3.68508 15.4442C3.23279 14.3522 3 13.1819 3 12C3 10.8181 3.23279 9.64778 3.68508 8.55585C4.13738 7.46392 4.80031 6.47177 5.63604 5.63604C6.47177 4.80031 7.46392 4.13738 8.55585 3.68508C9.64778 3.23279 10.8181 3 12 3C14.3869 3 16.6761 3.94821 18.364 5.63604C20.0518 7.32387 21 9.61305 21 12C21 14.3869 20.0518 16.6761 18.364 18.364C16.6761 20.0518 14.3869 21 12 21ZM8.207 11.45C8.01953 11.6375 7.91421 11.8918 7.91421 12.157C7.91421 12.4222 8.01953 12.6765 8.207 12.864L10.328 14.985C10.4209 15.078 10.5312 15.1517 10.6526 15.2021C10.774 15.2524 10.9041 15.2783 11.0355 15.2783C11.1669 15.2783 11.297 15.2524 11.4184 15.2021C11.5398 15.1517 11.6501 15.078 11.743 14.985L15.985 10.743C16.1726 10.5555 16.2781 10.3011 16.2782 10.0359C16.2783 9.77058 16.173 9.51614 15.9855 9.3285C15.798 9.14086 15.5436 9.03539 15.2784 9.0353C15.0131 9.0352 14.7586 9.14049 14.571 9.328L11.036 12.864L9.62 11.45C9.43247 11.2625 9.17816 11.1572 8.913 11.1572C8.64784 11.1572 8.39453 11.2625 8.207 11.45Z" fill="#39A25E"/>
</svg>
