<svg width="24" height="24" viewBox="0 0 24 24" fill="none" xmlns="http://www.w3.org/2000/svg">
<path d="M8.11 11.354C8.06344 11.3076 8.02649 11.2524 8.00129 11.1916C7.97608 11.1309 7.96311 11.0658 7.96311 11C7.96311 10.9342 7.97608 10.8691 8.00129 10.8084C8.02649 10.7476 8.06344 10.6924 8.11 10.646L8.818 9.939C8.91176 9.84526 9.03892 9.79261 9.1715 9.79261C9.30408 9.79261 9.43124 9.84526 9.525 9.939L12 12.414L14.475 9.939C14.5688 9.84526 14.6959 9.79261 14.8285 9.79261C14.9611 9.79261 15.0882 9.84526 15.182 9.939L15.889 10.646C15.9827 10.7398 16.0354 10.8669 16.0354 10.9995C16.0354 11.1321 15.9827 11.2592 15.889 11.353L12.354 14.889C12.3077 14.9358 12.2526 14.973 12.1918 14.9983C12.131 15.0237 12.0658 15.0367 12 15.0367C11.9342 15.0367 11.869 15.0237 11.8082 14.9983C11.7474 14.973 11.6923 14.9358 11.646 14.889L8.111 11.354H8.11Z" fill="#2D333F"/>
</svg>
