<svg width="63" height="10" viewBox="0 0 63 10" fill="none" xmlns="http://www.w3.org/2000/svg">
<path d="M7.01532 0.333862L8.49506 3.58653H13.2836L9.40959 5.59678L10.8893 8.84945L7.01532 6.83919L3.1413 8.84945L4.62104 5.59678L0.747019 3.58653H5.53557L7.01532 0.333862Z" fill="#7551FF"/>
<path d="M19.4648 0.333862L20.9446 3.58653H25.7331L21.8591 5.59678L23.3389 8.84945L19.4648 6.83919L15.5908 8.84945L17.0706 5.59678L13.1965 3.58653H17.9851L19.4648 0.333862Z" fill="#7551FF"/>
<path d="M31.5916 0.333862L33.0713 3.58653H37.8599L33.9859 5.59678L35.4656 8.84945L31.5916 6.83919L27.7176 8.84945L29.1973 5.59678L25.3233 3.58653H30.1118L31.5916 0.333862Z" fill="#7551FF"/>
<path d="M44.1662 0.448364L45.646 3.70103H50.4345L46.5605 5.71128L48.0403 8.96395L44.1662 6.95369L40.2922 8.96395L41.772 5.71128L37.8979 3.70103H42.6865L44.1662 0.448364Z" fill="#D9D9D9"/>
<path d="M56.6594 0.448364L58.1391 3.70103H62.9277L59.0537 5.71128L60.5334 8.96395L56.6594 6.95369L52.7854 8.96395L54.2651 5.71128L50.3911 3.70103H55.1796L56.6594 0.448364Z" fill="#D9D9D9"/>
</svg>
