<svg width="24" height="24" viewBox="0 0 24 24" fill="none" xmlns="http://www.w3.org/2000/svg">
<path d="M3 5.001C3.00005 4.70074 3.0677 4.40435 3.19794 4.13381C3.32818 3.86327 3.51766 3.62552 3.75233 3.43821C3.98699 3.2509 4.26083 3.11883 4.55351 3.0518C4.84618 2.98477 5.1502 2.98449 5.443 3.051L11 4.314V20.992L4.556 19.526C4.11406 19.4254 3.7194 19.1776 3.4367 18.8233C3.154 18.4691 3.00002 18.0293 3 17.576V5.001ZM13 21V4.323L18.572 3.103C18.8641 3.03901 19.1668 3.04133 19.4579 3.10979C19.749 3.17824 20.021 3.3111 20.2539 3.49857C20.4869 3.68604 20.6748 3.92336 20.8039 4.19306C20.9331 4.46276 21 4.75798 21 5.057V17.639C21.0001 18.0951 20.8442 18.5376 20.5583 18.893C20.2724 19.2484 19.8736 19.4954 19.428 19.593L13 21Z" fill="#F4F7FE"/>
</svg>
